<svg width="24" height="24" viewBox="0 0 24 24" fill="none" xmlns="http://www.w3.org/2000/svg">
  <path d="M12 15C13.6569 15 15 13.6569 15 12C15 10.3431 13.6569 9 12 9C10.3431 9 9 10.3431 9 12C9 13.6569 10.3431 15 12 15Z" stroke="currentColor" strokeWidth="2" strokeLinecap="round" strokeLinejoin="round"/>
  <path d="M2 8V16C2 17.1046 2.89543 18 4 18H20C21.1046 18 22 17.1046 22 16V8C22 6.89543 21.1046 6 20 6H4C2.89543 6 2 6.89543 2 8Z" stroke="currentColor" strokeWidth="2"/>
  <path d="M16 12C16 10.8954 16.8954 10 18 10H20" stroke="currentColor" strokeWidth="2" strokeLinecap="round"/>
  <path d="M4 12C4 10.8954 4.89543 10 6 10H8" stroke="currentColor" strokeWidth="2" strokeLinecap="round"/>
  <path d="M16 12C16 13.1046 16.8954 14 18 14H20" stroke="currentColor" strokeWidth="2" strokeLinecap="round"/>
  <path d="M4 12C4 13.1046 4.89543 14 6 14H8" stroke="currentColor" strokeWidth="2" strokeLinecap="round"/>
</svg>